<?xml version="1.0" encoding="UTF-8" standalone="no"?>
<!-- Created with Inkscape (http://www.inkscape.org/) -->

<svg
   width="50mm"
   height="50mm"
   viewBox="0 0 50 50"
   version="1.1"
   id="svg1"
   inkscape:version="1.4.3 (0d15f75, 2025-12-25)"
   sodipodi:docname="clock.svg"
   xmlns:inkscape="http://www.inkscape.org/namespaces/inkscape"
   xmlns:sodipodi="http://sodipodi.sourceforge.net/DTD/sodipodi-0.dtd"
   xmlns="http://www.w3.org/2000/svg"
   xmlns:svg="http://www.w3.org/2000/svg">
  <sodipodi:namedview
     id="namedview1"
     pagecolor="#ffffff"
     bordercolor="#000000"
     borderopacity="0.25"
     inkscape:showpageshadow="2"
     inkscape:pageopacity="0.0"
     inkscape:pagecheckerboard="0"
     inkscape:deskcolor="#d1d1d1"
     inkscape:document-units="mm"
     inkscape:zoom="4.1071316"
     inkscape:cx="63.791479"
     inkscape:cy="97.513311"
     inkscape:window-width="1920"
     inkscape:window-height="1017"
     inkscape:window-x="1912"
     inkscape:window-y="-8"
     inkscape:window-maximized="1"
     inkscape:current-layer="layer1" />
  <defs
     id="defs1" />
  <g
     inkscape:label="Vrstva 1"
     inkscape:groupmode="layer"
     id="layer1">
    <circle
       style="fill:#000000;stroke-width:0.435092"
       id="path2"
       cx="24.962578"
       cy="24.780373"
       r="6.7417183" />
    <circle
       style="fill:#ffffff;stroke-width:0.565263"
       id="path3"
       cx="24.943855"
       cy="24.83655"
       r="5.9364562" />
    <rect
       style="fill:#000000;stroke-width:0.435092"
       id="rect3"
       width="0.67417175"
       height="4.2322998"
       x="24.325863"
       y="21.18479"
       ry="0.33708587" />
    <rect
       style="fill:#000000;stroke-width:0.511657"
       id="rect6"
       width="0.94837707"
       height="4.2424726"
       x="-8.603528"
       y="40.282906"
       ry="0.29558215"
       transform="matrix(0.98222697,-0.18769706,0.81099185,0.58505745,0,0)" />
    <path
       style="fill:#e6e6e6;stroke-width:0.243479"
       d="m 92.278514,116.09288 c -8.161923,-0.86558 -14.840787,-5.64436 -18.251485,-13.0591 -1.616316,-3.513808 -1.836975,-4.63824 -1.823935,-9.294392 0.01084,-3.872054 0.0559,-4.272686 0.698175,-6.208713 2.597919,-7.830928 8.269439,-13.259534 15.951538,-15.268326 2.831444,-0.740394 7.15542,-0.850784 9.881921,-0.252282 8.497582,1.86533 15.123922,8.281319 17.210972,16.66463 0.74508,2.99285 0.74508,7.38001 0,10.37286 -1.5933,6.399983 -5.97518,11.883843 -11.85846,14.840673 -3.38259,1.70002 -8.158807,2.59173 -11.808726,2.20465 z m 15.017036,-11.93412 c 0.19032,-0.073 0.31327,-0.29958 0.27322,-0.50344 -0.0853,-0.43391 -11.499525,-8.752198 -12.307639,-8.969342 l -0.547828,-0.147204 -0.0036,-6.608406 c -0.0026,-4.819341 -0.08654,-6.773196 -0.30999,-7.217103 -0.383218,-0.761302 -1.486787,-0.939363 -2.142742,-0.345732 -0.438316,0.39667 -0.465426,0.841761 -0.465426,7.6413 0,5.407273 0.07642,7.317303 0.304349,7.607254 0.42389,0.539225 11.096316,8.215163 11.991336,8.624543 0.68246,0.31215 2.28829,0.27117 3.20831,-0.0819 z"
       id="path1"
       transform="scale(0.26458333)" />
  </g>
</svg>
